<?xml version="1.0" standalone="no"?><!DOCTYPE svg PUBLIC "-//W3C//DTD SVG 1.1//EN" "http://www.w3.org/Graphics/SVG/1.1/DTD/svg11.dtd"><svg t="1562650172397" class="icon" viewBox="0 0 1024 1024" version="1.1" xmlns="http://www.w3.org/2000/svg" p-id="2021" xmlns:xlink="http://www.w3.org/1999/xlink" width="200" height="200"><defs><style type="text/css"></style></defs><path d="M128 243.2l0 512 768 0 0-512L128 243.2zM864 723.2l-704 0 0-448 704 0L864 723.2z" p-id="2022"></path><path d="M435.2 435.2 640 435.2c19.2 0 32-12.8 32-32L672 396.8c0-19.2-12.8-32-32-32L435.2 364.8C422.4 371.2 409.6 384 409.6 396.8l0 6.4C409.6 422.4 422.4 435.2 435.2 435.2z" p-id="2023"></path><path d="M441.6 614.4l345.6 0c19.2 0 32-12.8 32-32l0 0c0-19.2-12.8-32-32-32L441.6 550.4c-19.2 0-32 12.8-32 32l0 0C409.6 601.6 422.4 614.4 441.6 614.4z" p-id="2024"></path><path d="M211.2 364.8l128 0 0 256-128 0 0-256Z" p-id="2025"></path></svg>