<?xml version="1.0" standalone="no"?><!DOCTYPE svg PUBLIC "-//W3C//DTD SVG 1.1//EN" "http://www.w3.org/Graphics/SVG/1.1/DTD/svg11.dtd"><svg t="1543804873575" class="icon" style="" viewBox="0 0 1024 1024" version="1.1" xmlns="http://www.w3.org/2000/svg" p-id="1784" xmlns:xlink="http://www.w3.org/1999/xlink" width="200" height="200"><defs><style type="text/css"></style></defs><path d="M877.849958 293.479268h-192.22842c19.407423-23.046315 31.115163-52.843039 31.115163-85.27664A132.634973 132.634973 0 1 0 475.093184 132.629699a132.634973 132.634973 0 1 0-210.528354 160.849569H72.33641A71.195711 71.195711 0 0 0 1.246175 364.569504v163.486447a71.195711 71.195711 0 0 0 58.01132 69.824535v354.238215a71.195711 71.195711 0 0 0 71.090235 71.090236h689.490908a71.195711 71.195711 0 0 0 71.037498-71.090236V597.880486a71.195711 71.195711 0 0 0 58.064058-69.824535v-163.486447a71.195711 71.195711 0 0 0-71.090236-71.090236zM584.101728 122.925987a85.434853 85.434853 0 0 1 85.276641 85.276641 85.434853 85.434853 0 0 1-85.276641 85.27664H498.77235V208.202628A85.434853 85.434853 0 0 1 584.101728 122.925987zM280.860737 208.14989A85.434853 85.434853 0 0 1 366.031902 122.925987 85.434853 85.434853 0 0 1 451.414018 208.14989v85.27664H366.08464a85.434853 85.434853 0 0 1-85.27664-85.27664zM48.604507 528.055951v-163.486447a23.731904 23.731904 0 0 1 23.679166-23.731904H451.36128v210.897517H72.33641a23.731904 23.731904 0 0 1-23.731903-23.731903z m58.01132 424.06275V600.306413h344.745453v375.491454H130.34773a23.731904 23.731904 0 0 1-23.679166-23.679166z m736.849239 0a23.731904 23.731904 0 0 1-23.731903 23.731903H498.825088V600.306413h344.745453v351.812288z m58.01132-424.06275a23.731904 23.731904 0 0 1-23.679166 23.679166H498.825088V340.890338h379.077607a23.731904 23.731904 0 0 1 23.731904 23.679166v163.486447z" p-id="1785"></path></svg>