<?xml version="1.0" standalone="no"?><!DOCTYPE svg PUBLIC "-//W3C//DTD SVG 1.1//EN" "http://www.w3.org/Graphics/SVG/1.1/DTD/svg11.dtd"><svg t="1542355046943" class="icon" style="" viewBox="0 0 1024 1024" version="1.1" xmlns="http://www.w3.org/2000/svg" p-id="1815" xmlns:xlink="http://www.w3.org/1999/xlink" width="200" height="200"><defs><style type="text/css"></style></defs><path d="M887.195 748.23c-48.34-127.637-185.645-222.168-349.902-230.566v-94.532c86.035-12.402 152.441-86.035 152.441-176.074 0-98.438-79.882-177.734-177.734-177.734-98.438 0-177.734 79.882-177.734 177.734 0 89.453 66.407 163.672 152.441 176.074v94.532c-164.844 8.399-302.636 102.93-350.488 230.566-42.676 13.477-74.218 53.418-74.218 100.684 0 58.496 47.266 105.761 105.761 105.761s105.761-47.266 105.761-105.761c0-54.59-41.602-99.023-94.532-104.59 48.34-104.59 166.504-180.566 307.129-188.476v190.723c-46.093 11.23-80.469 52.832-80.469 102.343 0 58.496 47.266 105.761 105.761 105.761s105.761-47.266 105.761-105.761c0-49.511-34.278-91.114-80.469-102.343v-191.212c140.625 8.399 258.788 84.375 307.129 188.965-52.832 6.153-93.945 50.098-93.945 104.59 0 58.496 47.266 105.761 105.761 105.761 58.496 0 106.348-47.266 106.348-105.761 0-47.753-31.543-87.207-74.805-100.684v0z" fill="#ff2c4a" p-id="1816"></path></svg>