<?xml version="1.0" standalone="no"?><!DOCTYPE svg PUBLIC "-//W3C//DTD SVG 1.1//EN" "http://www.w3.org/Graphics/SVG/1.1/DTD/svg11.dtd"><svg t="1545285587819" class="icon" style="" viewBox="0 0 1024 1024" version="1.1" xmlns="http://www.w3.org/2000/svg" p-id="1531" xmlns:xlink="http://www.w3.org/1999/xlink" width="200" height="200"><defs><style type="text/css"></style></defs><path d="M790.931269 958.816418 233.077941 958.816418c-92.480274 0-167.359682-74.967412-167.359682-167.556157L65.718259 679.54797l0-335.112314L65.718259 232.739738c0-92.587722 74.879408-167.55718 167.359682-167.55718l334.702991 0c72.740698 0 134.103254 46.722114 157.177785 111.704105l65.973574 0c92.471065 0 167.348426 74.969459 167.348426 167.546947l0 83.779102 0 223.409233 0 139.637294C958.279694 883.849006 883.402333 958.816418 790.931269 958.816418L790.931269 958.816418 790.931269 958.816418zM567.780933 121.035634l-334.702991 0c-56.966433 0-103.518678 42.958394-110.170169 98.168834 29.495778-26.000164 67.800175-42.317805 110.170169-42.317805l430.819073 0C644.602575 143.575999 608.98231 121.035634 567.780933 121.035634L567.780933 121.035634 567.780933 121.035634zM902.499273 456.138738c0-15.470343-12.44545-27.926026-27.889187-27.926026L595.679329 428.212712c-15.451924 0-27.89942 12.45466-27.89942 27.926026l0 167.56639c0 15.459087 12.447497 27.916816 27.89942 27.916816l278.930757 0c15.443737 0 27.889187-12.45773 27.889187-27.916816L902.499273 456.138738 902.499273 456.138738 902.499273 456.138738zM902.499273 707.472973 567.780933 707.472973c-30.779004 0-55.780421-25.018813-55.780421-55.850006L512.000512 428.213735c0-30.824029 25.001417-55.842843 55.780421-55.842843l334.719364 0 0-27.935236c0-61.656245-50.001811-111.694895-111.568005-111.694895L233.077941 232.740762c-61.576427 0-111.561865 50.03865-111.561865 111.694895l0 446.824605c0 61.648059 49.985438 111.693872 111.561865 111.693872l557.853327 0c61.566194 0 111.568005-50.045813 111.568005-111.693872L902.499273 707.472973 902.499273 707.472973 902.499273 707.472973zM623.57875 512.001023l55.780421 0 0 55.853076-55.780421 0L623.57875 512.001023 623.57875 512.001023 623.57875 512.001023zM623.57875 512.001023" p-id="1532"></path></svg>