<?xml version="1.0" standalone="no"?><!DOCTYPE svg PUBLIC "-//W3C//DTD SVG 1.1//EN" "http://www.w3.org/Graphics/SVG/1.1/DTD/svg11.dtd"><svg t="1542079406511" class="icon" style="" viewBox="0 0 1024 1024" version="1.1" xmlns="http://www.w3.org/2000/svg" p-id="1930" xmlns:xlink="http://www.w3.org/1999/xlink" width="200" height="200"><defs><style type="text/css"></style></defs><path d="M897.564 497.038v-161.652c0 0-3.237-25.84-30.309-30.309h-171.756v-20.208c0 0 48.012-28.522 60.618-80.827 0 0 4.107-47.355-10.101-70.72 0 0-18.3-54.373-101.032-70.722 0 0-84.041-10.942-121.238 60.617 0 0-10.33 27.807-10.103 60.621 0 0-2.909 30.773 20.207 70.722 0 0 15.786 18.627 40.413 30.308v20.208h-303.095c0 0-19.882 7.636-20.208 30.309v292.992h-20.205c0 0-14.84-41.675-80.826-60.619 0 0-41.014-5.173-70.723 10.102-24.883 12.787-51.148 31.573-60.618 60.619 0 0-23.383 39.555 0 111.135 0 0 14.838 36.939 70.721 60.621 0 0 51.463 8.523 90.93-10.104 0 0 29.677-15.787 50.516-50.516h20.205v181.859c0 0 5.663 17.807 30.31 20.206h151.547c0 0 11.365 2.526 20.206-20.206v-30.31c0 0-50.516-38.52-60.618-90.927 0 0-4.067-56.633 20.206-90.93 20.977-29.638 60.621-40.414 60.621-40.414s36.898-17.669 89.496-0.472c0.473 0.158 0.95 0.315 1.433 0.472 53.356 17.996 69.773 103.876 60.617 141.447 0 0-13.268 31.798-50.515 70.722v40.412c0 0 10.103 18.943 30.31 20.206h262.682c0 0 25.069-2.734 30.309-30.311v-282.888c0 0-28.415-22.418-60.621 0 0 0-76.355 99.758-181.856 20.206 0 0-73.248-79.248-10.102-161.65 0 0 59.986-88.088 161.652-20.208 0.001 0 46.254 50.971 90.928 20.208z" p-id="1931"></path></svg>